<?xml version="1.0" encoding="UTF-8"?>
<svg id="Layer_1" data-name="Layer 1" xmlns="http://www.w3.org/2000/svg" viewBox="0 0 27.73 15.69">
  <defs>
    <style>
      .cls-1 {
        fill: #270141;
        stroke: #ffcf9c;
        stroke-miterlimit: 10;
        stroke-width: .15px;
      }
    </style>
  </defs>
  <path class="cls-1" d="M6.29,11.26c0,.25-.09.38-.27.38s-.2-.13-.25-.13c-.23,0-.13,1.24-.49,1.24-.2,0-.31-.27-.49-.27-.38,0-.07,1.66-.38,1.66-.14,0-.18-.22-.18-.32,0-.14.02-.74.02-.83,0-.13-.04-.2-.18-.2s-.14.29-.32.29c-.14,0-.29-.31-.5-.31-.16,0-.18.13-.29.13-.16,0-.25-.29-.43-.29-.14,0-.16.2-.16.34,0,.22.05.5.05.63,0,.18-.05.38-.27.38-.52,0-.27-1.22-.56-1.22-.41,0-.11,1.13-.49,1.13-.11,0-.41-.05-.41-.45,0-.56-.43-.41-.43-.74,0-.5.16-.92.16-1.53,0-.41-.2-.4-.2-.68,0-.45.14-.61.32-2.32.22-2.18.23-2.88.23-3.17,0-.34-.04-.5-.11-.5-.25,0-.23.74-.45.74-.13,0-.14-.23-.14-.52,0-.4.22-.72.22-1.31,0-.18.09-.59.09-.74,0-.65-.13-1.31-.13-1.33C.25.89.6.47.92.47c.11,0,.4.14.54.14.13,0,.41-.13.68-.13.05,0,.4.13.52.13.14,0,.54-.13.74-.13.25,0,.72.32.81.34,1.13.27,1.8,1.06,1.8,1.78s.13,1.13.13,1.21c0,.25-.02.58-.11,1.04-.18.9-.04,1.46-.38,1.46-.13,0-.13-.11-.23-.11-.14,0-.16.23-.38.23-.2,0-.23-.02-.23.13,0,.54.97.54.97.9,0,.14-.09.22-.09.27s.05.13.16.25c.32.32.34.7.34,1.15,0,.4-.04.72-.05,1.22,0,.18.14.76.14.88ZM3.96,3.73s-.18.34-.32.34c-.04,0-.22-.02-.22-.23,0-.31.22-.56.22-.99,0-.2-.23-.29-.45-.29-.29,0-.2.47-.29.47-.2,0-.11-.58-.31-.58-.22,0-.23.76-.23,1.04,0,.18.04.34.04.45,0,.29-.25.56-.25.83,0,.65.88.97,1.21.97s.58-.43.58-.85c0-.13-.07-.27-.07-.38,0-.2.16-.45.16-.58,0-.16-.02-.22-.05-.22ZM3.73,9.78c0-.43.18-.94.18-1.19s-.11-.41-.29-.41c-.25,0-.04.74-.27.74-.18,0-.31-.29-.31-.63,0-.13.05-.23.05-.5,0-.18-.04-.23-.14-.23-.16,0-.4.4-.4,1.01,0,.47.31.79.31.95,0,.09-.05.13-.14.13-.07,0-.25-.14-.36-.14s-.14.07-.14.2c0,.22.13.31.13.7,0,.14.05.27.18.27.05,0,.14-.04.2-.04.23,0,.23.31.34.31.68,0,1.15-.4,1.15-.67-.02-.29-.5-.22-.49-.49Z"/>
  <path class="cls-1" d="M12.87.47c.27,0,.34-.14.54-.14.27,0,.38.49.38,1.44,0,.77-.59,1.39-.59,2.21,0,.27.05.63.05.88,0,.34-.05.54-.05.86,0,.38.25,1.31.25,2,0,.36-.09.59-.09,1.04,0,.31.02.67.02,1.01,0,1.03-.02,1.1-.25,1.66-.05.11-.45.49-1.17,1.1-.29.23-.41.5-.41.79,0,.36.11.5.11.68,0,.25-.14.34-.34.34-.27,0-.32-.14-.32-.38,0-.22.05-.45.05-.5,0-.14-.14-.32-.34-.32-.18.02-.2.27-.4.27-.13,0-.4-.31-.49-.31-.13,0-.22.07-.22.34s.22.88.22,1.64c0,.2-.11.52-.47.52-.25,0-.38-.14-.38-.47,0-.67.11-1.17.11-1.42,0-.18.02-.72-.58-1.37-.95-1.04-1.33-2.25-1.33-3.42,0-.43.04-.85.04-1.31,0-.54-.07-1.17-.07-1.78,0-1.01.29-1.94.29-3.17,0-.25,0-.47-.02-.63-.05-.65-.4-.7-.4-1.15,0-.54.92-.81,1.3-.81.76,0,1.13.23,1.3,1.48.11.86.2,1.48.2,2.21,0,1.67-.38,3.4-.43,4-.07.63-.13,1.3-.13,1.55,0,1.26,1.01,1.62,1.28,1.62.43,0,.74-.5.74-2.2s-.18-2.56-.18-3.51c0-.7.16-1.39.16-2.16,0-.32-.34-1.66-.34-2.2,0-.63.52-.63.81-.63.41,0,.92.23,1.17.23Z"/>
  <path class="cls-1" d="M20.04,13.47c0,.07.07.25.07.54,0,.59-.14,1.13-.34,1.13-.13,0-.16-.11-.16-.29,0-.29.04-.54.04-.65,0-.38-.09-1.24-.27-1.24-.31,0-.31.27-.49.27-.07,0-.16-.04-.16-.14,0-.09.11-.43.11-.7,0-.31-.07-.59-.22-.92-.32-.7-.49-1.24-.49-1.53,0-.16.04-.27.04-.41,0-.41-.36-.74-.36-1.03,0-.27.07-.32.07-.56,0-.13-.05-.2-.16-.2-.18,0-.38.07-.38.49,0,.29.05.34.05.45,0,.09-.07.11-.11.11-.25-.02-.13-.72-.36-.72-.07,0-.11.11-.11.32,0,.16.09,1.06.09,1.17,0,.22-.13,1.17-.13,1.82,0,.47.2.95.2,1.5,0,.65-.02.85-.2.85-.4,0-.18-.74-.49-.74-.22,0-.45.29-.45.54,0,.27.11.7.11.77,0,.11-.05.18-.22.18-.18,0-.18-.2-.18-.36,0-.07.02-.32.02-.45,0-.27.02-.47-.41-.74-.32-.2-.32-.38-.32-.49,0-.13.31-.76.31-.95,0-.61-.32-1.53-.32-1.78,0-.72.32-1.64.32-1.89,0-.52-.29-1.75-.29-2.07,0-.54.4-1.06.4-1.64,0-.5-.29-1.08-.32-1.28-.02-.25-.23-.76-.23-.97,0-.23.11-.65.11-.92,0-.07-.07-.25-.07-.38,0-.18.2-.29.34-.29.2,0,.68.27.85.27.2,0,.56-.09.74-.09.41,0,1.03.09,1.44.09h-.02c2.32.41,2.48,1.33,2.56,1.75.09.5.16.9.16,1.44,0,.29-.2.86-.2,1.15,0,.43-.11,1.21-.11,1.64,0,.23.05.34.05.41,0,.22-.16.4-.32.4s-.34-.38-.5-.38c-.05,0-.09.05-.09.09,0,.25.27.49.27.74,0,.14-.09.27-.09.47,0,.14.04.29.11.45.2.45.23.5.31.74.11.38.04,1.17.16,1.46.11.29.67.97.67,1.35,0,.74-1.01.68-1.01,1.22ZM18.4,3.87c0-.25.05-.32.05-.45,0-.49-.23-.86-.72-.86-.22,0-.31.31-.31.58,0,.07.02.25.02.31,0,.14-.04.2-.11.2-.27,0-.16-.63-.41-.63-.05,0-.09.07-.09.23s.13,1.22.13,1.39c0,.22-.09.34-.09.54,0,.13.09.23.22.23.14,0,.22-.07.31-.07.18,0,.32.52.61.52.32,0,.52-.5.52-1.17,0-.59-.13-.65-.13-.81Z"/>
  <path class="cls-1" d="M27.24,12.68c0,.11.25.34.25.58,0,.27-.16.36-.27.36-.38,0-.41-.81-.54-.81-.07,0-.13.31-.22.31-.16,0-.25-.13-.25-.34,0-.23.05-.47.05-.72,0-.09-.04-.14-.13-.14-.13,0-.2.14-.2.43,0,.25.07.52.07.58,0,.61-.36.77-.59.77-.11,0-.23-.07-.27-.22-.13-.54-.38-.63-.56-.63-.13,0-.65.07-.65.38,0,.72.04,1.39-.25,1.39-.18,0-.27-.09-.27-.32,0-.05.02-.25.02-.32,0-.97-.16-1.19-.32-1.19-.11,0-.2.22-.34.22-.16,0-.36-.13-.36-.38,0-.2.14-.5.14-.58,0-.05-.05-.13-.14-.13-.13,0-.22.47-.41.47-.09,0-.14-.05-.14-.16,0-.14.11-.49.11-.86,0-.29-.22-.81-.22-1.08,0-.14.09-.31.09-.45,0-.22-.09-.7-.09-.76,0-.14.02-.4.02-.52,0-.58-.34-.67-.34-1.08,0-.32.29-.56.29-.97,0-.14-.02-.49-.02-.54,0-.22.07-.63.07-.77,0-.25-.07-.29-.07-.58,0-.16.16-.68.16-.95v-.72c.13-1.39.16-1.71,1.3-2.16.74-.29.81-.54,1.69-.54,1.85,0,2.79,1.55,2.79,3.26,0,.16-.18.81-.18,1.49,0,.2.04.65.04.95,0,.2-.02.36-.25.36-.14,0-.18-.23-.18-.43,0-.11.05-.29.05-.61,0-.14-.09-.23-.25-.23-.32,0-.16.77-.4.77-.29,0-.34-.11-.34-.2,0-.07.07-.36.07-.43,0-.54-.74-.45-.74-1.08,0-.2.14-.63.14-.81,0-.79-.38-.85-.49-.85-.18,0-.27.07-.27.2s.11.5.11.68c0,.34-.09.7-.27.7-.11,0-.25-.05-.25-.22,0-.18.11-.4.11-.56,0-.2-.13-.27-.16-.27-.25,0-.43.61-.43.95,0,.77.14.9.14,1.22,0,.36-.36.67-.36,1.01,0,.09.18,1.19.18,1.89,0,.61-.13.99-.13,1.13-.02.18.07.42.16.74.13.54.07,1.12.77,1.12.41,0,.76-.47.76-.99,0-.2-.16-.54-.16-.68,0-.2.25-.72.25-.88,0-.36-.4-.49-.47-.49-.09,0-.25.05-.25.16,0,.29.11.54.11.83,0,.22-.09.34-.23.34-.16,0-.23-.11-.23-.32,0-.07.02-.32.02-.41,0-.36-.25-.67-.25-1.13,0-.59.23-1.03.72-1.03.09,0,.23.02.29.02.09,0,.52-.11.68-.11.29,0,.79.38,1.08.38.5,0,.58.04.58.38,0,.29-.14.77-.14,1.03,0,.22.16.9.16,1.19,0,.41-.13,1.15-.13,1.57,0,.16.16.63.16.88,0,.36-.42.68-.42.94Z"/>
</svg>